.
..............................Site Info...........................

 -   http://www.scenetime.com  *_*   


Scenetime .Always on time . friendly online private torrent community ..

     We care to share . Join us on  http://www.scenetime.com 

    Be the first to get new release at  http://www.scenetime.com

        Seed back for speed


...................................NFO:.................................................[center][img]http://lookpic.com/O/i2/927/unn0Bf8r.jpeg[/img][/center]
[img]http://lookpic.com/O/i2/298/l4OrvnSi.png[/img] 
http://www.imdb.com/title/tt0247745/

[b]Source 1080p PROPER Japhson Thx

Super.Troopers.2001.BRRip.XviD-INFERNO

Format                           : AVI
Format/Info                      : Audio Video Interleave
File size                        : 897 MiB
Duration                         : 1h 36mn
Overall bit rate                 : 1 300 Kbps

Video
ID                               : 0
Format                           : MPEG-4 Visual
Format profile                   : Advanced Simple@L5
Format settings, BVOP            : 2
Format settings, QPel            : No
Format settings, GMC             : No warppoints
Format settings, Matrix          : Default (H.263)
Muxing mode                      : Packed bitstream
Codec ID                         : XVID
Codec ID/Hint                    : XviD
Duration                         : 1h 36mn
Bit rate                         : 1 163 Kbps
Width                            : 688 pixels
Height                           : 368 pixels
Display aspect ratio             : 1.870
Frame rate                       : 23.976 fps
Color space                      : YUV
Chroma subsampling               : 4:2:0
Bit depth                        : 8 bits
Scan type                        : Progressive
Compression mode                 : Lossy
Bits/(Pixel*Frame)               : 0.192
Stream size                      : 802 MiB (89%)
Writing library                  : XviD 64

Audio
ID                               : 1
Format                           : MPEG Audio
Format version                   : Version 1
Format profile                   : Layer 3
Mode                             : Joint stereo
Mode extension                   : MS Stereo
Codec ID                         : 55
Codec ID/Hint                    : MP3
Duration                         : 1h 36mn
Bit rate mode                    : Constant
Bit rate                         : 128 Kbps
Channel(s)                       : 2 channels
Sampling rate                    : 48.0 KHz
Compression mode                 : Lossy
Stream size                      : 88.3 MiB (10%)
Alignment                        : Split accross interleaves
Interleave, duration             : 42 ms (1.00 video frame)
Interleave, preload duration     : 500 ms
Writing library                  : LAME3.98.4[/b]

[IMG]http://lookpic.com/O/i2/1964/WcslQxoJ.png[/IMG]
[center][img]http://lookpic.com/O/i2/1797/JkmGJHF.png[/img][/center]
[center][img]http://lookpic.com/O/i2/1461/YW6h7dAW.png[/img][/center]
[center][img]http://lookpic.com/O/i2/1549/K7Fqxqm.png[/img][/center]
[center][img]http://lookpic.com/O/i2/1675/s6ZK1Q7n.png[/img][/center]
[center][img]http://www.myimg.us/images/02.20.12/24265.gif[/img][/center]